<?xml version="1.0" encoding="UTF-8"?>
<!DOCTYPE svg PUBLIC "-//W3C//DTD SVG 1.1//EN" "http://www.w3.org/Graphics/SVG/1.1/DTD/svg11.dtd">
<svg xmlns="http://www.w3.org/2000/svg" version="1.1" width="512px" height="512px" style="shape-rendering:geometricPrecision; text-rendering:geometricPrecision; image-rendering:optimizeQuality; fill-rule:evenodd; clip-rule:evenodd" xmlns:xlink="http://www.w3.org/1999/xlink">
<g><path style="opacity:0.988" fill="#000000" d="M 366.5,20.5 C 381.283,18.6952 394.617,22.1952 406.5,31C 431,55.5 455.5,80 480,104.5C 494,125.167 494,145.833 480,166.5C 455.5,191 431,215.5 406.5,240C 385.833,254 365.167,254 344.5,240C 320,215.5 295.5,191 271,166.5C 257,145.833 257,125.167 271,104.5C 295.5,80 320,55.5 344.5,31C 351.266,26.1151 358.6,22.6151 366.5,20.5 Z"/></g>
<g><path style="opacity:0.996" fill="#000000" d="M 69.5,31.5 C 113.501,31.3333 157.501,31.5 201.5,32C 221.333,37.1667 233.833,49.6667 239,69.5C 239.667,113.5 239.667,157.5 239,201.5C 233.833,221.333 221.333,233.833 201.5,239C 157.5,239.667 113.5,239.667 69.5,239C 49.6667,233.833 37.1667,221.333 32,201.5C 31.3333,157.5 31.3333,113.5 32,69.5C 37.3488,49.6518 49.8488,36.9852 69.5,31.5 Z"/></g>
<g><path style="opacity:0.996" fill="#000000" d="M 69.5,271.5 C 113.501,271.333 157.501,271.5 201.5,272C 221.333,277.167 233.833,289.667 239,309.5C 239.667,353.5 239.667,397.5 239,441.5C 233.833,461.333 221.333,473.833 201.5,479C 157.5,479.667 113.5,479.667 69.5,479C 49.6667,473.833 37.1667,461.333 32,441.5C 31.3333,397.5 31.3333,353.5 32,309.5C 37.3488,289.652 49.8488,276.985 69.5,271.5 Z"/></g>
<g><path style="opacity:0.996" fill="#000000" d="M 309.5,271.5 C 353.501,271.333 397.501,271.5 441.5,272C 461.333,277.167 473.833,289.667 479,309.5C 479.667,353.5 479.667,397.5 479,441.5C 473.833,461.333 461.333,473.833 441.5,479C 397.5,479.667 353.5,479.667 309.5,479C 289.667,473.833 277.167,461.333 272,441.5C 271.333,397.5 271.333,353.5 272,309.5C 277.349,289.652 289.849,276.985 309.5,271.5 Z"/></g>
</svg>
